<mxfile host="app.diagrams.net" agent="Mozilla/5.0 (Windows NT 10.0; Win64; x64) AppleWebKit/537.36 (KHTML, like Gecko) Chrome/136.0.0.0 Safari/537.36" version="26.2.14">
  <diagram name="Page-1" id="yBFkfZrO6NtrfgG4hThT">
    <mxGraphModel dx="1377" dy="735" grid="1" gridSize="10" guides="1" tooltips="1" connect="1" arrows="1" fold="1" page="1" pageScale="1" pageWidth="850" pageHeight="1100" math="0" shadow="0">
      <root>
        <mxCell id="0" />
        <mxCell id="1" parent="0" />
        <mxCell id="q5C7RzMdjnGIxtpWIJ6e-9" style="edgeStyle=orthogonalEdgeStyle;rounded=0;orthogonalLoop=1;jettySize=auto;html=1;exitX=0.5;exitY=1;exitDx=0;exitDy=0;entryX=0.5;entryY=0;entryDx=0;entryDy=0;strokeColor=#A8201A;strokeWidth=2;labelBackgroundColor=none;fontColor=default;" edge="1" parent="1" source="q5C7RzMdjnGIxtpWIJ6e-2" target="q5C7RzMdjnGIxtpWIJ6e-8">
          <mxGeometry relative="1" as="geometry" />
        </mxCell>
        <mxCell id="q5C7RzMdjnGIxtpWIJ6e-2" value="v = 1&lt;div&gt;w0 = 0&lt;/div&gt;&lt;div&gt;E0 = 0&lt;/div&gt;" style="rounded=0;whiteSpace=wrap;html=1;textShadow=0;labelBorderColor=none;strokeColor=#0F8B8D;strokeWidth=2;fillColor=none;fontColor=#143642;labelBackgroundColor=none;" vertex="1" parent="1">
          <mxGeometry x="360" y="48" width="120" height="62" as="geometry" />
        </mxCell>
        <mxCell id="q5C7RzMdjnGIxtpWIJ6e-3" value="&lt;font style=&quot;&quot;&gt;WAIT&lt;/font&gt;" style="text;html=1;align=center;verticalAlign=middle;resizable=0;points=[];autosize=1;strokeColor=none;fillColor=none;labelBackgroundColor=none;fontColor=#000000;fontStyle=1" vertex="1" parent="1">
          <mxGeometry x="349" y="21" width="50" height="30" as="geometry" />
        </mxCell>
        <mxCell id="q5C7RzMdjnGIxtpWIJ6e-4" value="&lt;font style=&quot;&quot;&gt;000&lt;/font&gt;" style="text;html=1;align=center;verticalAlign=middle;resizable=0;points=[];autosize=1;strokeColor=none;fillColor=none;labelBackgroundColor=none;fontColor=#000000;fontStyle=1" vertex="1" parent="1">
          <mxGeometry x="450" y="21" width="40" height="30" as="geometry" />
        </mxCell>
        <mxCell id="q5C7RzMdjnGIxtpWIJ6e-5" value="v = 0&lt;div&gt;P = N&lt;/div&gt;&lt;div&gt;L = 0&lt;/div&gt;&lt;div&gt;R = N - 1&lt;/div&gt;&lt;div&gt;M = (N - 1) &amp;gt;&amp;gt; 1&lt;/div&gt;" style="rounded=0;whiteSpace=wrap;html=1;textShadow=0;labelBorderColor=none;strokeColor=#0F8B8D;strokeWidth=2;fillColor=none;fontColor=#143642;labelBackgroundColor=none;" vertex="1" parent="1">
          <mxGeometry x="360" y="266.84999999999997" width="120" height="94" as="geometry" />
        </mxCell>
        <mxCell id="q5C7RzMdjnGIxtpWIJ6e-6" value="&lt;font style=&quot;&quot;&gt;INIT&lt;/font&gt;" style="text;html=1;align=center;verticalAlign=middle;resizable=0;points=[];autosize=1;strokeColor=none;fillColor=none;labelBackgroundColor=none;fontColor=#000000;fontStyle=1" vertex="1" parent="1">
          <mxGeometry x="345" y="239" width="50" height="30" as="geometry" />
        </mxCell>
        <mxCell id="q5C7RzMdjnGIxtpWIJ6e-7" value="&lt;font style=&quot;&quot;&gt;001&lt;/font&gt;" style="text;html=1;align=center;verticalAlign=middle;resizable=0;points=[];autosize=1;strokeColor=none;fillColor=none;labelBackgroundColor=none;fontColor=#000000;fontStyle=1" vertex="1" parent="1">
          <mxGeometry x="450" y="239" width="40" height="30" as="geometry" />
        </mxCell>
        <mxCell id="q5C7RzMdjnGIxtpWIJ6e-80" style="edgeStyle=orthogonalEdgeStyle;rounded=0;orthogonalLoop=1;jettySize=auto;html=1;exitX=0;exitY=0.5;exitDx=0;exitDy=0;strokeColor=#A8201A;strokeWidth=2;labelBackgroundColor=none;fontColor=default;" edge="1" parent="1" source="q5C7RzMdjnGIxtpWIJ6e-8">
          <mxGeometry relative="1" as="geometry">
            <mxPoint x="290" y="80" as="targetPoint" />
          </mxGeometry>
        </mxCell>
        <mxCell id="q5C7RzMdjnGIxtpWIJ6e-8" value="&lt;font&gt;(s = 1)?&lt;/font&gt;" style="rhombus;whiteSpace=wrap;html=1;fillColor=none;strokeColor=#0F8B8D;strokeWidth=2;labelBackgroundColor=none;fontColor=#0F8B8D;fontStyle=0" vertex="1" parent="1">
          <mxGeometry x="360" y="150" width="120" height="80" as="geometry" />
        </mxCell>
        <mxCell id="q5C7RzMdjnGIxtpWIJ6e-10" style="edgeStyle=orthogonalEdgeStyle;rounded=0;orthogonalLoop=1;jettySize=auto;html=1;exitX=0.5;exitY=1;exitDx=0;exitDy=0;entryX=0.5;entryY=0;entryDx=0;entryDy=0;strokeColor=#A8201A;strokeWidth=2;labelBackgroundColor=none;fontColor=default;" edge="1" parent="1" target="q5C7RzMdjnGIxtpWIJ6e-5">
          <mxGeometry relative="1" as="geometry">
            <mxPoint x="420" y="230" as="sourcePoint" />
            <mxPoint x="420" y="294" as="targetPoint" />
          </mxGeometry>
        </mxCell>
        <mxCell id="q5C7RzMdjnGIxtpWIJ6e-11" value="1" style="edgeLabel;html=1;align=center;verticalAlign=middle;resizable=0;points=[];fontColor=#143642;labelBackgroundColor=none;" vertex="1" connectable="0" parent="q5C7RzMdjnGIxtpWIJ6e-10">
          <mxGeometry x="-0.2832" y="1" relative="1" as="geometry">
            <mxPoint x="10" as="offset" />
          </mxGeometry>
        </mxCell>
        <mxCell id="q5C7RzMdjnGIxtpWIJ6e-13" value="0" style="edgeLabel;html=1;align=center;verticalAlign=middle;resizable=0;points=[];fontColor=#143642;labelBackgroundColor=none;" vertex="1" connectable="0" parent="1">
          <mxGeometry x="301" y="138" as="geometry" />
        </mxCell>
        <mxCell id="q5C7RzMdjnGIxtpWIJ6e-14" value="A0 = M" style="rounded=0;whiteSpace=wrap;html=1;textShadow=0;labelBorderColor=none;strokeColor=#0F8B8D;strokeWidth=2;fillColor=none;fontColor=#143642;labelBackgroundColor=none;fontStyle=0" vertex="1" parent="1">
          <mxGeometry x="360" y="406" width="120" height="34" as="geometry" />
        </mxCell>
        <mxCell id="q5C7RzMdjnGIxtpWIJ6e-15" value="&lt;font style=&quot;&quot;&gt;READ_M&lt;/font&gt;" style="text;html=1;align=center;verticalAlign=middle;resizable=0;points=[];autosize=1;strokeColor=none;fillColor=none;labelBackgroundColor=none;fontColor=#000000;fontStyle=1" vertex="1" parent="1">
          <mxGeometry x="349" y="379" width="70" height="30" as="geometry" />
        </mxCell>
        <mxCell id="q5C7RzMdjnGIxtpWIJ6e-16" value="&lt;font style=&quot;&quot;&gt;010&lt;/font&gt;" style="text;html=1;align=center;verticalAlign=middle;resizable=0;points=[];autosize=1;strokeColor=none;fillColor=none;labelBackgroundColor=none;fontColor=#000000;fontStyle=1" vertex="1" parent="1">
          <mxGeometry x="450" y="379" width="40" height="30" as="geometry" />
        </mxCell>
        <mxCell id="q5C7RzMdjnGIxtpWIJ6e-17" style="edgeStyle=orthogonalEdgeStyle;rounded=0;orthogonalLoop=1;jettySize=auto;html=1;entryX=0.5;entryY=0;entryDx=0;entryDy=0;strokeColor=#A8201A;strokeWidth=2;exitX=0.5;exitY=1;exitDx=0;exitDy=0;labelBackgroundColor=none;fontColor=default;" edge="1" parent="1" source="q5C7RzMdjnGIxtpWIJ6e-5" target="q5C7RzMdjnGIxtpWIJ6e-14">
          <mxGeometry relative="1" as="geometry">
            <mxPoint x="420" y="370" as="sourcePoint" />
            <mxPoint x="420" y="484" as="targetPoint" />
          </mxGeometry>
        </mxCell>
        <mxCell id="q5C7RzMdjnGIxtpWIJ6e-19" style="edgeStyle=orthogonalEdgeStyle;rounded=0;orthogonalLoop=1;jettySize=auto;html=1;exitX=0.5;exitY=1;exitDx=0;exitDy=0;entryX=0.5;entryY=0;entryDx=0;entryDy=0;strokeColor=#A8201A;strokeWidth=2;labelBackgroundColor=none;fontColor=default;" edge="1" parent="1" target="q5C7RzMdjnGIxtpWIJ6e-20">
          <mxGeometry relative="1" as="geometry">
            <mxPoint x="420" y="440" as="sourcePoint" />
            <Array as="points">
              <mxPoint x="420" y="460" />
              <mxPoint x="420" y="460" />
            </Array>
          </mxGeometry>
        </mxCell>
        <mxCell id="q5C7RzMdjnGIxtpWIJ6e-97" style="edgeStyle=orthogonalEdgeStyle;rounded=0;orthogonalLoop=1;jettySize=auto;html=1;exitX=0;exitY=0.5;exitDx=0;exitDy=0;entryX=1;entryY=0.5;entryDx=0;entryDy=0;strokeColor=#A8201A;fontColor=#143642;fillColor=#FAE5C7;strokeWidth=2;" edge="1" parent="1" source="q5C7RzMdjnGIxtpWIJ6e-20" target="q5C7RzMdjnGIxtpWIJ6e-26">
          <mxGeometry relative="1" as="geometry" />
        </mxCell>
        <mxCell id="q5C7RzMdjnGIxtpWIJ6e-20" value="&lt;font&gt;(D0 == K)?&amp;nbsp;&lt;/font&gt;" style="rhombus;whiteSpace=wrap;html=1;fillColor=none;strokeColor=#0F8B8D;strokeWidth=2;labelBackgroundColor=none;fontColor=#0F8B8D;fontStyle=0" vertex="1" parent="1">
          <mxGeometry x="360" y="480" width="120" height="80" as="geometry" />
        </mxCell>
        <mxCell id="q5C7RzMdjnGIxtpWIJ6e-99" style="edgeStyle=orthogonalEdgeStyle;rounded=0;orthogonalLoop=1;jettySize=auto;html=1;exitX=0.5;exitY=0;exitDx=0;exitDy=0;strokeColor=#A8201A;fontColor=#143642;fillColor=#FAE5C7;strokeWidth=2;endArrow=classic;startFill=0;endFill=1;" edge="1" parent="1" source="q5C7RzMdjnGIxtpWIJ6e-26">
          <mxGeometry relative="1" as="geometry">
            <mxPoint x="233.90476190476193" y="80" as="targetPoint" />
          </mxGeometry>
        </mxCell>
        <mxCell id="q5C7RzMdjnGIxtpWIJ6e-26" value="&lt;div&gt;P = M&lt;/div&gt;" style="rounded=0;whiteSpace=wrap;html=1;textShadow=0;labelBorderColor=none;strokeColor=#0F8B8D;strokeWidth=2;fillColor=none;fontColor=#143642;labelBackgroundColor=none;" vertex="1" parent="1">
          <mxGeometry x="174" y="503" width="120" height="34" as="geometry" />
        </mxCell>
        <mxCell id="q5C7RzMdjnGIxtpWIJ6e-27" value="&lt;font style=&quot;&quot;&gt;FOUND&lt;/font&gt;" style="text;html=1;align=center;verticalAlign=middle;resizable=0;points=[];autosize=1;strokeColor=none;fillColor=none;labelBackgroundColor=none;fontColor=#000000;fontStyle=1" vertex="1" parent="1">
          <mxGeometry x="160" y="474" width="70" height="30" as="geometry" />
        </mxCell>
        <mxCell id="q5C7RzMdjnGIxtpWIJ6e-28" value="&lt;font style=&quot;&quot;&gt;011&lt;/font&gt;" style="text;html=1;align=center;verticalAlign=middle;resizable=0;points=[];autosize=1;strokeColor=none;fillColor=none;labelBackgroundColor=none;fontColor=#000000;fontStyle=1" vertex="1" parent="1">
          <mxGeometry x="265" y="474" width="40" height="30" as="geometry" />
        </mxCell>
        <mxCell id="q5C7RzMdjnGIxtpWIJ6e-32" style="edgeStyle=orthogonalEdgeStyle;rounded=0;orthogonalLoop=1;jettySize=auto;html=1;exitX=0.5;exitY=1;exitDx=0;exitDy=0;entryX=0.5;entryY=0;entryDx=0;entryDy=0;strokeColor=#A8201A;strokeWidth=2;labelBackgroundColor=none;fontColor=default;" edge="1" parent="1" target="q5C7RzMdjnGIxtpWIJ6e-39">
          <mxGeometry relative="1" as="geometry">
            <mxPoint x="420" y="560" as="sourcePoint" />
            <mxPoint x="420" y="624" as="targetPoint" />
          </mxGeometry>
        </mxCell>
        <mxCell id="q5C7RzMdjnGIxtpWIJ6e-33" value="0" style="edgeLabel;html=1;align=center;verticalAlign=middle;resizable=0;points=[];fontColor=#143642;labelBackgroundColor=none;" vertex="1" connectable="0" parent="q5C7RzMdjnGIxtpWIJ6e-32">
          <mxGeometry x="-0.2832" y="1" relative="1" as="geometry">
            <mxPoint x="10" as="offset" />
          </mxGeometry>
        </mxCell>
        <mxCell id="q5C7RzMdjnGIxtpWIJ6e-94" style="edgeStyle=orthogonalEdgeStyle;rounded=0;orthogonalLoop=1;jettySize=auto;html=1;exitX=0;exitY=0.5;exitDx=0;exitDy=0;entryX=1;entryY=0.5;entryDx=0;entryDy=0;strokeWidth=2;strokeColor=#A8201A;labelBackgroundColor=none;fontColor=default;" edge="1" parent="1" source="q5C7RzMdjnGIxtpWIJ6e-39" target="q5C7RzMdjnGIxtpWIJ6e-44">
          <mxGeometry relative="1" as="geometry" />
        </mxCell>
        <mxCell id="q5C7RzMdjnGIxtpWIJ6e-39" value="&lt;font&gt;(L &amp;gt; R)?&amp;nbsp;&lt;/font&gt;" style="rhombus;whiteSpace=wrap;html=1;fillColor=none;strokeColor=#0F8B8D;strokeWidth=2;labelBackgroundColor=none;fontColor=#0F8B8D;fontStyle=0" vertex="1" parent="1">
          <mxGeometry x="360" y="592" width="120" height="80" as="geometry" />
        </mxCell>
        <mxCell id="q5C7RzMdjnGIxtpWIJ6e-40" style="edgeStyle=orthogonalEdgeStyle;rounded=0;orthogonalLoop=1;jettySize=auto;html=1;exitX=0.5;exitY=1;exitDx=0;exitDy=0;entryX=0.5;entryY=0;entryDx=0;entryDy=0;strokeColor=#A8201A;strokeWidth=2;labelBackgroundColor=none;fontColor=default;" edge="1" parent="1" target="q5C7RzMdjnGIxtpWIJ6e-51">
          <mxGeometry relative="1" as="geometry">
            <mxPoint x="420" y="672" as="sourcePoint" />
            <mxPoint x="420" y="736" as="targetPoint" />
          </mxGeometry>
        </mxCell>
        <mxCell id="q5C7RzMdjnGIxtpWIJ6e-41" value="0" style="edgeLabel;html=1;align=center;verticalAlign=middle;resizable=0;points=[];fontColor=#143642;labelBackgroundColor=none;" vertex="1" connectable="0" parent="q5C7RzMdjnGIxtpWIJ6e-40">
          <mxGeometry x="-0.2832" y="1" relative="1" as="geometry">
            <mxPoint x="10" y="2" as="offset" />
          </mxGeometry>
        </mxCell>
        <mxCell id="q5C7RzMdjnGIxtpWIJ6e-95" style="edgeStyle=orthogonalEdgeStyle;rounded=0;orthogonalLoop=1;jettySize=auto;html=1;exitX=0;exitY=0.5;exitDx=0;exitDy=0;entryX=0;entryY=0.5;entryDx=0;entryDy=0;strokeWidth=2;strokeColor=#A8201A;labelBackgroundColor=none;fontColor=default;" edge="1" parent="1" source="q5C7RzMdjnGIxtpWIJ6e-44" target="q5C7RzMdjnGIxtpWIJ6e-2">
          <mxGeometry relative="1" as="geometry">
            <Array as="points">
              <mxPoint x="140" y="632" />
              <mxPoint x="140" y="79" />
            </Array>
          </mxGeometry>
        </mxCell>
        <mxCell id="q5C7RzMdjnGIxtpWIJ6e-44" value="P = N" style="rounded=0;whiteSpace=wrap;html=1;textShadow=0;labelBorderColor=none;strokeColor=#0F8B8D;strokeWidth=2;fillColor=none;fontColor=#143642;labelBackgroundColor=none;" vertex="1" parent="1">
          <mxGeometry x="171" y="615" width="120" height="34" as="geometry" />
        </mxCell>
        <mxCell id="q5C7RzMdjnGIxtpWIJ6e-45" value="&lt;font style=&quot;&quot;&gt;NOT_FOUND&lt;/font&gt;" style="text;html=1;align=center;verticalAlign=middle;resizable=0;points=[];autosize=1;strokeColor=none;fillColor=none;labelBackgroundColor=none;fontColor=#000000;fontStyle=1" vertex="1" parent="1">
          <mxGeometry x="157" y="588" width="100" height="30" as="geometry" />
        </mxCell>
        <mxCell id="q5C7RzMdjnGIxtpWIJ6e-46" value="&lt;font style=&quot;&quot;&gt;100&lt;/font&gt;" style="text;html=1;align=center;verticalAlign=middle;resizable=0;points=[];autosize=1;strokeColor=none;fillColor=none;labelBackgroundColor=none;fontColor=#000000;fontStyle=1" vertex="1" parent="1">
          <mxGeometry x="261" y="588" width="40" height="30" as="geometry" />
        </mxCell>
        <mxCell id="q5C7RzMdjnGIxtpWIJ6e-50" value="1" style="edgeLabel;html=1;align=center;verticalAlign=middle;resizable=0;points=[];fontColor=#143642;labelBackgroundColor=none;" vertex="1" connectable="0" parent="1">
          <mxGeometry x="329" y="620" as="geometry" />
        </mxCell>
        <mxCell id="q5C7RzMdjnGIxtpWIJ6e-51" value="&lt;font&gt;(D0 &amp;lt; K)?&amp;nbsp;&lt;/font&gt;" style="rhombus;whiteSpace=wrap;html=1;fillColor=none;strokeColor=#0F8B8D;strokeWidth=2;labelBackgroundColor=none;fontColor=#0F8B8D;fontStyle=0" vertex="1" parent="1">
          <mxGeometry x="360" y="710.5" width="120" height="80" as="geometry" />
        </mxCell>
        <mxCell id="q5C7RzMdjnGIxtpWIJ6e-52" style="edgeStyle=orthogonalEdgeStyle;rounded=0;orthogonalLoop=1;jettySize=auto;html=1;exitX=0;exitY=0.5;exitDx=0;exitDy=0;strokeColor=#A8201A;strokeWidth=2;entryX=0.5;entryY=0;entryDx=0;entryDy=0;labelBackgroundColor=none;fontColor=default;" edge="1" parent="1" source="q5C7RzMdjnGIxtpWIJ6e-51" target="q5C7RzMdjnGIxtpWIJ6e-54">
          <mxGeometry relative="1" as="geometry">
            <mxPoint x="380" y="920" as="sourcePoint" />
            <mxPoint x="360" y="1000" as="targetPoint" />
          </mxGeometry>
        </mxCell>
        <mxCell id="q5C7RzMdjnGIxtpWIJ6e-53" value="1" style="edgeLabel;html=1;align=center;verticalAlign=middle;resizable=0;points=[];fontColor=#143642;labelBackgroundColor=none;" vertex="1" connectable="0" parent="q5C7RzMdjnGIxtpWIJ6e-52">
          <mxGeometry x="-0.2832" y="1" relative="1" as="geometry">
            <mxPoint x="-13" y="29" as="offset" />
          </mxGeometry>
        </mxCell>
        <mxCell id="q5C7RzMdjnGIxtpWIJ6e-54" value="L = M + 1" style="rounded=0;whiteSpace=wrap;html=1;textShadow=0;labelBorderColor=none;strokeColor=#0F8B8D;strokeWidth=2;fillColor=none;fontColor=#143642;labelBackgroundColor=none;" vertex="1" parent="1">
          <mxGeometry x="246" y="816.5" width="151" height="34" as="geometry" />
        </mxCell>
        <mxCell id="q5C7RzMdjnGIxtpWIJ6e-55" value="&lt;font style=&quot;&quot;&gt;UPDATE_L&lt;/font&gt;" style="text;html=1;align=center;verticalAlign=middle;resizable=0;points=[];autosize=1;strokeColor=none;fillColor=none;labelBackgroundColor=none;fontColor=#000000;fontStyle=1" vertex="1" parent="1">
          <mxGeometry x="235" y="788" width="80" height="30" as="geometry" />
        </mxCell>
        <mxCell id="q5C7RzMdjnGIxtpWIJ6e-56" value="&lt;font style=&quot;&quot;&gt;101&lt;/font&gt;" style="text;html=1;align=center;verticalAlign=middle;resizable=0;points=[];autosize=1;strokeColor=none;fillColor=none;labelBackgroundColor=none;fontColor=#000000;fontStyle=1" vertex="1" parent="1">
          <mxGeometry x="367" y="788" width="40" height="30" as="geometry" />
        </mxCell>
        <mxCell id="q5C7RzMdjnGIxtpWIJ6e-57" style="edgeStyle=orthogonalEdgeStyle;rounded=0;orthogonalLoop=1;jettySize=auto;html=1;exitX=1;exitY=0.5;exitDx=0;exitDy=0;strokeColor=#A8201A;strokeWidth=2;entryX=0.5;entryY=0;entryDx=0;entryDy=0;labelBackgroundColor=none;fontColor=default;" edge="1" parent="1" source="q5C7RzMdjnGIxtpWIJ6e-51" target="q5C7RzMdjnGIxtpWIJ6e-59">
          <mxGeometry relative="1" as="geometry">
            <mxPoint x="460" y="915" as="sourcePoint" />
            <mxPoint x="480" y="1000" as="targetPoint" />
          </mxGeometry>
        </mxCell>
        <mxCell id="q5C7RzMdjnGIxtpWIJ6e-58" value="0" style="edgeLabel;html=1;align=center;verticalAlign=middle;resizable=0;points=[];fontColor=#143642;labelBackgroundColor=none;" vertex="1" connectable="0" parent="q5C7RzMdjnGIxtpWIJ6e-57">
          <mxGeometry x="-0.2832" y="1" relative="1" as="geometry">
            <mxPoint x="12" y="31" as="offset" />
          </mxGeometry>
        </mxCell>
        <mxCell id="q5C7RzMdjnGIxtpWIJ6e-59" value="R = M - 1" style="rounded=0;whiteSpace=wrap;html=1;textShadow=0;labelBorderColor=none;strokeColor=#0F8B8D;strokeWidth=2;fillColor=none;fontColor=#143642;labelBackgroundColor=none;" vertex="1" parent="1">
          <mxGeometry x="445" y="816.5" width="151" height="34" as="geometry" />
        </mxCell>
        <mxCell id="q5C7RzMdjnGIxtpWIJ6e-60" value="&lt;font style=&quot;&quot;&gt;UPDATE_R&lt;/font&gt;" style="text;html=1;align=center;verticalAlign=middle;resizable=0;points=[];autosize=1;strokeColor=none;fillColor=none;labelBackgroundColor=none;fontColor=#000000;fontStyle=1" vertex="1" parent="1">
          <mxGeometry x="430" y="788" width="90" height="30" as="geometry" />
        </mxCell>
        <mxCell id="q5C7RzMdjnGIxtpWIJ6e-61" value="&lt;font style=&quot;&quot;&gt;110&lt;/font&gt;" style="text;html=1;align=center;verticalAlign=middle;resizable=0;points=[];autosize=1;strokeColor=none;fillColor=none;labelBackgroundColor=none;fontColor=#000000;fontStyle=1" vertex="1" parent="1">
          <mxGeometry x="565" y="788" width="40" height="30" as="geometry" />
        </mxCell>
        <mxCell id="q5C7RzMdjnGIxtpWIJ6e-67" value="M = (L + R) &amp;gt;&amp;gt; 1" style="rounded=0;whiteSpace=wrap;html=1;textShadow=0;labelBorderColor=none;strokeColor=#0F8B8D;strokeWidth=2;fillColor=none;fontColor=#143642;labelBackgroundColor=none;" vertex="1" parent="1">
          <mxGeometry x="340" y="930" width="160" height="34" as="geometry" />
        </mxCell>
        <mxCell id="q5C7RzMdjnGIxtpWIJ6e-68" value="&lt;font style=&quot;&quot;&gt;UPDATE_M&lt;/font&gt;" style="text;html=1;align=center;verticalAlign=middle;resizable=0;points=[];autosize=1;strokeColor=none;fillColor=none;labelBackgroundColor=none;fontColor=#000000;fontStyle=1" vertex="1" parent="1">
          <mxGeometry x="326" y="902" width="90" height="30" as="geometry" />
        </mxCell>
        <mxCell id="q5C7RzMdjnGIxtpWIJ6e-69" value="&lt;font style=&quot;&quot;&gt;111&lt;/font&gt;" style="text;html=1;align=center;verticalAlign=middle;resizable=0;points=[];autosize=1;strokeColor=none;fillColor=none;labelBackgroundColor=none;fontColor=#000000;fontStyle=1" vertex="1" parent="1">
          <mxGeometry x="472" y="902" width="40" height="30" as="geometry" />
        </mxCell>
        <mxCell id="q5C7RzMdjnGIxtpWIJ6e-75" style="edgeStyle=orthogonalEdgeStyle;rounded=0;orthogonalLoop=1;jettySize=auto;html=1;exitX=1;exitY=0.5;exitDx=0;exitDy=0;strokeColor=#A8201A;strokeWidth=2;endArrow=classic;startFill=0;endFill=1;entryX=1;entryY=0.5;entryDx=0;entryDy=0;labelBackgroundColor=none;fontColor=default;" edge="1" parent="1" source="q5C7RzMdjnGIxtpWIJ6e-67" target="q5C7RzMdjnGIxtpWIJ6e-14">
          <mxGeometry relative="1" as="geometry">
            <mxPoint x="479.96" y="1201.6" as="sourcePoint" />
            <mxPoint x="620" y="510" as="targetPoint" />
            <Array as="points">
              <mxPoint x="630" y="947" />
              <mxPoint x="630" y="423" />
            </Array>
          </mxGeometry>
        </mxCell>
        <mxCell id="q5C7RzMdjnGIxtpWIJ6e-82" value="1" style="edgeLabel;html=1;align=center;verticalAlign=middle;resizable=0;points=[];fontColor=#143642;labelBackgroundColor=none;" vertex="1" connectable="0" parent="1">
          <mxGeometry x="329" y="509" as="geometry" />
        </mxCell>
        <mxCell id="q5C7RzMdjnGIxtpWIJ6e-87" style="edgeStyle=orthogonalEdgeStyle;rounded=0;orthogonalLoop=1;jettySize=auto;html=1;exitX=0.5;exitY=1;exitDx=0;exitDy=0;endArrow=none;startFill=0;strokeColor=#A8201A;strokeWidth=2;labelBackgroundColor=none;fontColor=default;" edge="1" parent="1">
          <mxGeometry relative="1" as="geometry">
            <mxPoint x="322" y="881" as="targetPoint" />
            <mxPoint x="322" y="850" as="sourcePoint" />
          </mxGeometry>
        </mxCell>
        <mxCell id="q5C7RzMdjnGIxtpWIJ6e-88" style="edgeStyle=orthogonalEdgeStyle;rounded=0;orthogonalLoop=1;jettySize=auto;html=1;exitX=0.5;exitY=1;exitDx=0;exitDy=0;endArrow=none;startFill=0;strokeColor=#A8201A;strokeWidth=2;labelBackgroundColor=none;fontColor=default;" edge="1" parent="1">
          <mxGeometry relative="1" as="geometry">
            <mxPoint x="520.39" y="881" as="targetPoint" />
            <mxPoint x="520.39" y="850.5" as="sourcePoint" />
          </mxGeometry>
        </mxCell>
        <mxCell id="q5C7RzMdjnGIxtpWIJ6e-89" value="" style="endArrow=none;html=1;rounded=0;strokeWidth=2;strokeColor=#A8201A;labelBackgroundColor=none;fontColor=default;" edge="1" parent="1">
          <mxGeometry width="50" height="50" relative="1" as="geometry">
            <mxPoint x="322" y="880" as="sourcePoint" />
            <mxPoint x="521" y="880" as="targetPoint" />
            <Array as="points">
              <mxPoint x="420" y="880" />
            </Array>
          </mxGeometry>
        </mxCell>
        <mxCell id="q5C7RzMdjnGIxtpWIJ6e-91" style="edgeStyle=orthogonalEdgeStyle;rounded=0;orthogonalLoop=1;jettySize=auto;html=1;exitX=0.5;exitY=1;exitDx=0;exitDy=0;endArrow=classic;startFill=0;strokeColor=#A8201A;strokeWidth=2;entryX=0.5;entryY=0;entryDx=0;entryDy=0;endFill=1;labelBackgroundColor=none;fontColor=default;" edge="1" parent="1" target="q5C7RzMdjnGIxtpWIJ6e-67">
          <mxGeometry relative="1" as="geometry">
            <mxPoint x="420" y="910" as="targetPoint" />
            <mxPoint x="420" y="880" as="sourcePoint" />
          </mxGeometry>
        </mxCell>
      </root>
    </mxGraphModel>
  </diagram>
</mxfile>
